<?xml version="1.0" encoding="utf-8"?>
<!-- Generator: Adobe Illustrator 16.0.3, SVG Export Plug-In . SVG Version: 6.00 Build 0)  -->
<!DOCTYPE svg PUBLIC "-//W3C//DTD SVG 1.1//EN" "http://www.w3.org/Graphics/SVG/1.1/DTD/svg11.dtd">
<svg version="1.1" id="Capa_1" xmlns="http://www.w3.org/2000/svg" xmlns:xlink="http://www.w3.org/1999/xlink" x="0px" y="0px"
	 width="263.5px" height="76px" viewBox="0 0 263.5 76" enable-background="new 0 0 263.5 76" xml:space="preserve">
<path fill="#FFFFFF" d="M10.412,58.982V27.714H3.999v-3.529h16.703v3.529h-6.414v31.268H10.412z"/>
<path fill="#FFFFFF" d="M31.139,24.185c5.469,0,7.754,2.783,7.754,7.954v2.833c0,3.828-1.342,6.213-4.325,7.158
	c3.181,0.944,4.375,3.53,4.375,7.258v5.418c0,1.542,0.049,2.982,0.695,4.175h-3.927c-0.447-0.995-0.646-1.889-0.646-4.225v-5.469
	c0-3.927-1.839-5.17-5.07-5.17h-2.734v14.864h-3.876V24.185H31.139z M30.144,40.589c3.083,0,4.922-0.995,4.922-4.772v-3.331
	c0-3.132-1.144-4.772-4.026-4.772h-3.778v12.875H30.144z"/>
<path fill="#FFFFFF" d="M42.957,32.154c0-5.319,2.635-8.746,7.954-8.746c5.369,0,8.003,3.427,8.003,8.746v17.997
	c0,5.269-2.634,8.75-8.003,8.75c-5.319,0-7.954-3.481-7.954-8.75V32.154z M46.785,50.349c0,3.182,1.342,5.021,4.126,5.021
	c2.833,0,4.125-1.838,4.125-5.021V31.957c0-3.13-1.292-5.02-4.125-5.02c-2.784,0-4.126,1.889-4.126,5.02V50.349z"/>
<path fill="#FFFFFF" d="M69.328,58.553V27.285h-6.413v-3.529h16.653v3.529h-6.413v31.268H69.328z"/>
<path fill="#FFFFFF" d="M84.24,51.544l-1.343,7.009h-3.579l6.662-34.797h5.618l6.661,34.797H94.38l-1.342-7.009H84.24z
	 M84.737,48.213h7.755l-3.929-20.083L84.737,48.213z"/>
<path fill="#FFFFFF" d="M114.114,58.504h-3.729l-5.766-27.689v27.738h-3.381V23.756h5.419l5.716,27.788l5.518-27.788h5.418v34.797
	h-3.679V30.566L114.114,58.504z"/>
<path fill="#FFFFFF" d="M130.964,50.351c0,3.132,1.243,5.02,4.075,5.02c2.782,0,4.026-1.888,4.026-5.02V23.756h3.63v26.396
	c0,5.27-2.437,8.798-7.808,8.798c-5.318,0-7.754-3.529-7.754-8.798V23.756h3.83V50.351z"/>
<path fill="#FFFFFF" d="M149.948,58.553h-3.479V23.756h4.924l8.051,25.154V23.756h3.431v34.797h-4.026l-8.899-28.136V58.553z"/>
<path fill="#FFFFFF" d="M175.003,23.756c5.418,0,7.905,3.281,7.905,8.649v17.548c0,5.319-2.487,8.6-7.905,8.6h-8.153V23.756H175.003
	z M174.953,55.024c2.781,0,4.124-1.741,4.124-4.922V32.207c0-3.181-1.343-4.922-4.175-4.922h-4.174v27.739H174.953z"/>
<path fill="#FFFFFF" d="M186.233,32.157c0-5.319,2.638-8.748,7.955-8.748c5.368,0,8.002,3.429,8.002,8.748v17.995
	c0,5.27-2.634,8.749-8.002,8.749c-5.317,0-7.955-3.479-7.955-8.749V32.157z M190.063,50.351c0,3.181,1.343,5.02,4.125,5.02
	c2.833,0,4.127-1.839,4.127-5.02V31.958c0-3.132-1.294-5.021-4.127-5.021c-2.782,0-4.125,1.889-4.125,5.021V50.351z"/>
<path fill="#FFFFFF" d="M258.686,32.132v0.945h-3.679v-1.144c0-3.132-1.192-4.971-3.977-4.971c-2.783,0-3.977,1.839-3.977,4.921
	c0,7.805,11.681,8.55,11.681,18.343c0,5.269-2.535,8.699-7.854,8.699c-5.32,0-7.802-3.43-7.802-8.699v-1.989h3.628v2.188
	c0,3.132,1.29,4.971,4.074,4.971c2.785,0,4.075-1.839,4.075-4.971c0-7.754-11.63-8.5-11.63-18.293c0-5.369,2.485-8.699,7.703-8.699
	C256.199,23.434,258.686,26.863,258.686,32.132z"/>
<g>
	<ellipse fill="#6DAFDF" cx="224.216" cy="43.461" rx="16.532" ry="15.629"/>
	<g>
		<path fill="#E8EFF3" d="M215.302,56.057c-0.008,0.005-0.016,0.009-0.016,0.016c0.023,0.011,0.05,0.02,0.07,0.026L215.302,56.057z"
			/>
		<path fill="#E8EFF3" d="M215.768,34.01l-0.028-0.064c0.281-0.023,0.313-0.205,0.522-0.259c0.244-0.059,0.159,0.017,0.394,0.022
			c0.188,0.003,0.294,0.143,0.521,0.061c-0.055,0.085-0.145,0.143-0.241,0.196c-0.185,0.108-0.375,0.218-0.592,0.253
			C216.131,34.25,215.886,34.183,215.768,34.01z"/>
		<path fill="#E8EFF3" d="M218.116,48.115c-0.013,0.138-0.105,0.253-0.19,0.363c-0.362,0.491-0.608,1.073-0.688,1.672
			c-0.089,0.571-0.114,1.282-0.66,1.529c-0.311,0.143-0.738,0.086-0.961,0.346c-0.063,0.074-0.103,0.174-0.139,0.27
			c-0.164,0.439-0.325,0.877-0.481,1.321c-0.172-0.026-0.338-0.053-0.511-0.077c0.199,0.066,0.321,0.333,0.189,0.493
			c-0.189-0.104-0.445-0.003-0.561,0.17c-0.117,0.174-0.117,0.396-0.069,0.593c0.134,0.596,0.63,1.099,1.24,1.279
			c-0.12,0.186-0.448,0.082-0.64-0.06c-1.383-1.011-2.373-2.489-2.762-4.101c-0.138-0.566-0.213-1.162-0.522-1.663
			c-0.258-0.421-0.676-0.746-0.931-1.169c-0.364-0.603-0.39-1.364-0.813-1.927c-0.239-0.316-0.628-0.714-0.371-1.028
			c0.105-0.13,0.312-0.244,0.246-0.389c-0.022-0.042-0.08-0.079-0.112-0.119c-0.146-0.169-0.025-0.414,0.067-0.614
			c0.157-0.347,0.185-0.729,0.155-1.111c-0.369-0.361-0.656-0.788-0.821-1.264c-0.093-0.29-0.218-0.651-0.54-0.671
			c-0.068-0.224-0.146-0.448-0.204-0.674c-0.037,0.076-0.121,0.12-0.216,0.124c0.493-3.558,2.243-6.707,4.79-9.074
			c0.051-0.021,0.103-0.047,0.157-0.07c0.582-0.279,1.057-0.715,1.632-1.019c0.117-0.065,0.251-0.127,0.39-0.104
			c0.127,0.021,0.251,0.158,0.191,0.273c-0.019,0.049-0.067,0.089-0.113,0.113c-0.678,0.478-1.406,0.881-2.177,1.205
			c-0.089,0.04-0.185,0.081-0.23,0.163c-0.083,0.14,0.027,0.327,0.185,0.395c0.155,0.057,0.337,0.039,0.505,0.014
			c-0.154,0.179-0.21,0.429-0.154,0.652c0.154,0.021,0.22-0.175,0.266-0.31c0.229-0.533,1.166-0.701,1.146-1.278
			c0.243,0.141,0.516-0.125,0.684-0.336c0.172-0.22,0.52-0.428,0.696-0.214c0.007,0.114,0.009,0.227,0.017,0.34
			c0.329-0.059,0.665-0.118,1.002-0.177c-0.197,0.114-0.279,0.372-0.185,0.573c0.094,0.196,0.359,0.308,0.572,0.243
			c-0.011,0.166-0.177,0.286-0.323,0.373c-0.38,0.233-0.791,0.477-1.215,0.576l0.081,0.2c-0.016,0-0.024,0.006-0.034,0
			c-0.268,0.011-0.544-0.191-0.831-0.176c-0.18,0.017-0.396,0-0.51,0.167c-0.012,0.02-0.099,0.31-0.045,0.287
			c0.151-0.073,0.315-0.15,0.481-0.224c0.034,0.126,0.037,0.26,0.007,0.388c0.189-0.011,0.382,0.045,0.543,0.149
			c-0.199,0.373-0.665,0.601-1.116,0.543c0.008-0.125,0.011-0.256,0.019-0.379c-0.369-0.049-0.684,0.222-0.891,0.512
			c-0.208,0.291-0.371,0.622-0.688,0.791c-0.199,0.109-0.427,0.145-0.64,0.228c-0.204,0.09-0.398,0.273-0.371,0.489
			c0.008,0.099,0.073,0.194,0.062,0.299c-0.027,0.189-0.264,0.262-0.432,0.373c-0.283,0.196-0.376,0.582-0.677,0.749
			c-0.212,0.128-0.494,0.106-0.742,0.161c-0.246,0.059-0.504,0.275-0.424,0.498c-0.119,0.034-0.262-0.062-0.265-0.18
			c-0.483,0.771-0.829,1.62-1.002,2.504c0.201,0.15,0.441-0.158,0.499-0.395c0.058-0.237,0.305-0.547,0.506-0.39
			c-0.077,0.345-0.144,0.693-0.217,1.035c-0.013,0.065-0.032,0.138,0,0.2c0.036,0.074,0.12,0.114,0.188,0.169
			c0.184,0.169,0.136,0.443,0.131,0.682c-0.004,0.29,0.074,0.574,0.214,0.831c-0.007-0.053-0.011-0.099-0.025-0.151
			c0.289,0.057,0.603-0.014,0.834-0.188c0.118-0.089,0.225-0.209,0.369-0.249c0.157-0.043,0.318,0,0.471,0.052
			c0.463,0.152,0.96,0.324,1.254,0.694c0.147,0.19,0.231,0.418,0.414,0.584c0.406,0.366,1.146,0.261,1.519,0.668
			c0.295,0.328,0.203,0.828,0.087,1.251c-0.206-0.124-0.521,0.137-0.409,0.346c0.127-0.113,0.271-0.233,0.439-0.217
			c0.172,0.005,0.307,0.231,0.172,0.331c0.323-0.342,1.044-0.147,1.127,0.304c0.416,0.055,0.839,0.11,1.255,0.165
			C216.897,47.418,218.183,47.532,218.116,48.115z"/>
		<path fill="#E8EFF3" d="M216.694,31.638c-0.169,0.064-0.384-0.034-0.433-0.201c-0.051-0.161,0.081-0.357,0.256-0.379
			c0.11-0.017,0.266,0.004,0.307-0.1c0.01-0.033,0.004-0.067,0.01-0.096c0.01-0.194,0.201-0.342,0.406-0.38
			c0.199-0.034,0.404,0.017,0.605,0.065c0.06,0.143,0.07,0.304,0.025,0.451c-0.136,0-0.276-0.005-0.409-0.005
			c0,0.217-0.048,0.492-0.27,0.556c-0.19,0.059-0.43-0.09-0.597,0.022"/>
		<path fill="#E8EFF3" d="M218.981,29.612c0.387-0.146,0.722-0.396,1.097-0.549c0.662-0.27,1.407-0.255,2.122-0.229
			c1.633,0.048,3.265,0.101,4.894,0.152c-0.392,0.176-0.783,0.345-1.171,0.519c-0.324,0.139-0.683,0.283-1.018,0.174
			c-0.024,0.252,0.21,0.506,0.478,0.523c-0.693,0.346-1.591-0.104-2.315,0.176c-0.307,0.122-0.563,0.365-0.891,0.394
			c-0.195,0.014-0.386-0.043-0.574-0.014c-0.314,0.042-0.53,0.313-0.777,0.508c-0.286,0.223-0.686,0.367-1.029,0.227
			c-0.341-0.134-0.488-0.636-0.193-0.85c0.146-0.104,0.346-0.108,0.508-0.181c0.174-0.063,0.312-0.266,0.201-0.403
			c-0.047-0.055-0.133-0.086-0.176-0.146c-0.058-0.069-0.041-0.161-0.078-0.235c-0.146-0.285-0.635,0.058-0.94-0.07"/>
		<path fill="#E8EFF3" d="M223.833,31.215c0.224-0.035,0.421-0.148,0.63-0.225c0.214-0.078,0.457-0.113,0.659-0.009
			c0.049,0.145-0.13,0.265-0.288,0.31c-0.294,0.076-0.618,0.087-0.915,0.02"/>
		<path fill="#E8EFF3" d="M237.022,33.576c-0.057,0.006-0.119,0-0.185-0.021c-0.279-0.072-0.474-0.292-0.703-0.451
			c-0.526-0.381-1.273-0.473-1.894-0.228c0.153-0.186,0.24-0.42,0.24-0.655l-0.087,0.022c-0.94-0.598-2.051-1.224-3.142-0.93
			c-0.254,0.071-0.489,0.185-0.736,0.248c-0.275,0.076-0.574,0.088-0.812,0.235c-0.24,0.138-0.393,0.476-0.203,0.67
			c0.158,0.177,0.433,0.145,0.662,0.181c0.23,0.035,0.481,0.271,0.342,0.452c-1.053,0.388-2.113,0.778-3.166,1.172
			c0.463,0.177,0.731,0.699,0.601,1.15c-0.344,0.032-0.664-0.181-1.009-0.222c-0.496-0.058-1.009,0.335-1.052,0.809
			c-0.052,0.478,0.384,0.943,0.886,0.968c0.377,0.022,0.76-0.173,1.122-0.058c0.039-0.322,0.29-0.583,0.55-0.801
			c0.502-0.417,1.199-0.781,1.812-0.522c0.2,0.084,0.367,0.226,0.526,0.364c0.361,0.309,0.722,0.617,1.079,0.927
			c0.123-0.111,0.249-0.222,0.376-0.324c0.195,0.213,0.387,0.432,0.582,0.656c0.108-0.067,0.217-0.119,0.328-0.181
			c0.064,0.186,0.126,0.377,0.188,0.558c0.049-0.199,0.088-0.393,0.126-0.593c0.245,0.026,0.51,0.049,0.741-0.044
			c0.233-0.089,0.408-0.333,0.332-0.557c-0.039-0.12-0.149-0.219-0.165-0.342c-0.032-0.25,0.352-0.398,0.589-0.271
			c0.232,0.125,0.333,0.389,0.415,0.633c0.075-0.239,0.144-0.471,0.216-0.705c0.197,0.591,0.494,1.158,0.877,1.66
			c-0.753-0.189-1.566-0.158-2.303,0.08c0.209,0.314,0.59,0.518,0.979,0.527c0.179,0.011,0.374-0.019,0.503,0.096
			c0.095,0.09,0.112,0.217,0.12,0.342c0.039,0.344,0.076,0.682,0.108,1.021c-0.386-0.345-0.967-0.345-1.492-0.385
			c-0.526-0.041-1.133-0.218-1.297-0.696c-0.22,0.209-0.338,0.522-0.3,0.82c-0.537-0.151-1.146-0.39-1.27-0.907
			c-0.438,0.124-0.951-0.167-1.033-0.589c-0.036-0.149-0.036-0.324-0.166-0.408c-0.078-0.053-0.185-0.049-0.276-0.043
			c-0.816,0.038-1.633,0.074-2.443,0.108c-0.443,0.024-0.905,0.045-1.305,0.229c-0.396,0.176-0.737,0.551-0.72,0.969
			c-0.776,0.375-1.446,0.941-1.914,1.623c-0.152,0.208-0.29,0.454-0.249,0.705c0.023,0.19,0.15,0.366,0.171,0.552
			c0.051,0.324-0.164,0.622-0.265,0.934c-0.296,0.894,0.374,1.787,0.997,2.513c0.292,0.334,0.634,0.703,1.094,0.752
			c0.293,0.023,0.572-0.081,0.852-0.16c0.785-0.241,1.628-0.319,2.451-0.241c-0.195,0.132-0.02,0.44,0.21,0.5
			c0.227,0.064,0.478,0.005,0.699,0.094c0.5,0.204,0.383,0.909,0.119,1.358c0.115-0.017,0.236-0.033,0.356-0.047
			c-0.07,0.155-0.145,0.305-0.225,0.454c0.698,0.131,0.901,1.014,0.695,1.654c-0.208,0.643-0.657,1.22-0.712,1.891
			c-0.028,0.363,0.065,0.728,0.166,1.084c0.237,0.908,0.474,1.811,0.706,2.717c0.833,0.141,1.386-0.832,2.179-1.103
			c0.301-0.097,0.647-0.102,0.889-0.291c0.232-0.188,0.196-0.651-0.086-0.673c0.386-0.015,0.737-0.322,0.771-0.688
			c0.011-0.104,0-0.205,0.024-0.31c0.037-0.141,0.143-0.267,0.248-0.381c0.645-0.769,1.092-1.668,1.538-2.555
			c0.116-0.232,0.233-0.47,0.353-0.705c0.438-0.886,0.881-1.765,1.321-2.65c0.176-0.347,0.349-0.688,0.522-1.033
			c-0.227,0.308-0.766,0.232-1.053-0.028c-0.293-0.258-0.432-0.633-0.65-0.942c-0.193-0.276-0.452-0.519-0.526-0.842
			c-0.045-0.181-0.018-0.375-0.036-0.563c-0.055-0.414-0.314-0.768-0.481-1.142c-0.171-0.385-0.238-0.868,0.057-1.17
			c0.692,1.34,1.319,2.718,1.876,4.122c0.081-0.205,0.257-0.376,0.473-0.468c0.155-0.07,0.33-0.09,0.498-0.144
			c0.436-0.15,0.763-0.563,0.791-1c0.028-0.438-0.241-0.881-0.658-1.08c-0.202-0.1-0.448-0.137-0.636-0.268
			c-0.195-0.124-0.328-0.392-0.187-0.571c0.134-0.171,0.424-0.148,0.612-0.038c0.187,0.117,0.318,0.299,0.498,0.425
			c0.129,0.09,0.285,0.157,0.428,0.243c0.759,0.473,0.883,1.459,0.99,2.313c0.061,0.461,0.129,0.921,0.221,1.374
			c0.012-0.095,0.015-0.196,0.02-0.291C240.996,40.361,239.576,36.53,237.022,33.576z M238.181,38.8
			c-0.103-0.016-0.2-0.09-0.28-0.161c-0.137-0.113-0.27-0.241-0.3-0.412c-0.031-0.199,0.082-0.416-0.019-0.6
			c-0.049-0.091-0.135-0.151-0.21-0.212c-0.195-0.167-0.329-0.402-0.369-0.645c-0.029-0.213,0.056-0.493,0.29-0.512
			c0.104-0.015,0.222,0.049,0.263,0.148l-0.158,0.07c0.261,0.042,0.355,0.418,0.143,0.561c-0.025,0.025-0.062,0.044-0.062,0.082
			c-0.005,0.018,0.009,0.042,0.022,0.059c0.157,0.173,0.387,0.249,0.593,0.368c0.197,0.113,0.393,0.319,0.344,0.533
			c-0.066,0.019-0.134,0.036-0.202,0.058c-0.075,0.064-0.03,0.186,0.04,0.261c0.075,0.069,0.162,0.142,0.162,0.241
			C238.429,38.742,238.294,38.814,238.181,38.8z"/>
		<path fill="#E8EFF3" d="M237.553,49.66l-0.286,0.168c0.075,0.317-0.144,0.668-0.469,0.768c-0.173,0.054-0.4,0.069-0.468,0.228
			c-0.062,0.141,0.047,0.286,0.049,0.433c0.013,0.239-0.24,0.403-0.416,0.571c-0.184,0.17-0.303,0.498-0.079,0.624
			c0.049,0.03,0.108,0.037,0.172,0.046c0.245,0.038,0.515,0.058,0.729-0.067c0.606-0.357,0.128-1.452,0.73-1.815
			c0.082-0.055,0.188-0.091,0.239-0.175C237.903,50.196,237.417,49.915,237.553,49.66z"/>
	</g>
	<path fill="#FFD93B" d="M219.51,31.366c-0.17,0.115-0.338,0.219-0.513,0.31c-0.142,0.079-0.239,0.126-0.297,0.151
		c-0.317,0.301-0.649,0.583-0.955,0.891c-0.309,0.312-0.604,0.646-0.901,0.969c-0.003,0.012-0.003,0.012-0.01,0.017
		c-0.88,1.461-1.806,2.904-2.929,4.212c14.647,7.464,19.786,15.251,15.092,20.504c0.011-0.004,0.023-0.013,0.032-0.016
		c3.658-1.442,6.161-4.883,5.871-8.619C234.469,44.301,229.48,37.811,219.51,31.366z"/>
	<path fill="#5A5F63" d="M219.618,24.337l-2.38,0.392l-0.842-0.789c-0.258-0.246-0.673-0.246-0.93,0
		c-0.257,0.238-0.257,0.637,0,0.879l0.184,0.174l-1.062,0.173l-0.69-0.657c-0.257-0.243-0.68-0.243-0.938,0
		c-0.251,0.238-0.251,0.638,0,0.88l0.046,0.038l-2.765,0.451l-2.077-1.958c-0.669-0.639-1.446-1.166-2.308-1.537
		c-0.646-0.281-1.367-0.488-1.945-0.385c-0.232,0.047-0.423,0.221-0.469,0.439c-0.124,0.616,0.164,1.399,0.517,2.059
		c0.38,0.719,0.882,1.369,1.481,1.936l2.115,1.994l-0.486,2.612l-0.035-0.043c-0.26-0.235-0.675-0.235-0.933,0
		c-0.262,0.247-0.262,0.645,0,0.883l0.696,0.659l-0.187,0.998l-0.193-0.169c-0.25-0.245-0.673-0.245-0.928,0
		c-0.257,0.239-0.257,0.636,0,0.882l0.843,0.785l-0.415,2.256c-0.049,0.24,0.033,0.488,0.221,0.663
		c0.369,0.347,0.995,0.272,1.251-0.155l1.068-1.749c0.624,0.518,1.325,0.715,1.325,0.715s-0.245-0.778-0.908-1.404l0.714-1.168
		c0.645,0.573,1.411,0.788,1.411,0.788s-0.247-0.784-0.91-1.409c-0.023-0.026-0.049-0.046-0.078-0.069l1.066-1.745l2.681,2.533
		l-0.741,3.144c-0.125,0.552,0.214,1.103,0.779,1.284c0.566,0.172,1.194-0.082,1.447-0.601l1-2.288
		c0.648,0.099,1.301,0.086,1.606,0.003c0.319,0.188,0.538,0.293,0.538,0.293s-0.113-0.206-0.31-0.506
		c0.088-0.29,0.098-0.907-0.012-1.518l2.445-0.951c0.122-0.055,0.232-0.13,0.332-0.218c0.317-0.304,0.427-0.74,0.284-1.143
		c-0.188-0.539-0.774-0.858-1.359-0.741l-3.321,0.698l-2.681-2.528l1.845-1.005c0.023,0.02,0.045,0.05,0.07,0.076
		c0.664,0.62,1.485,0.855,1.485,0.855s-0.229-0.717-0.826-1.334l1.238-0.671c0.654,0.623,1.479,0.855,1.479,0.855
		s-0.21-0.659-0.756-1.254l1.851-1.012c0.458-0.243,0.534-0.831,0.165-1.185C220.136,24.372,219.877,24.292,219.618,24.337z"/>
	<path fill="#E9B02C" d="M232.426,54.282c-0.109,0.726-0.1,0.716-0.601,2.138c0.283-1.021,0.409-1.252,0.481-2.149
		c0.586-3.908-2.233-8.837-4.84-11.517c-1.313-1.497-3.088-3.15-4.788-4.47c-1.459-1.16-2.121-1.568-3.351-2.396
		c-0.279-0.171-0.355-0.546-0.16-0.799c0.2-0.27,0.577-0.339,0.859-0.157c0,0.013,0.013,0.013,0.03,0.028
		c1.203,0.885,1.725,1.223,3.301,2.576c1.792,1.549,3.438,3.245,4.677,4.785C230.742,45.469,233.071,49.993,232.426,54.282z"/>
	<g>
	</g>
	<g>
	</g>
	<g>
	</g>
	<g>
	</g>
	<g>
	</g>
	<g>
	</g>
	<g>
	</g>
	<g>
	</g>
	<g>
	</g>
	<g>
	</g>
	<g>
	</g>
	<g>
	</g>
	<g>
	</g>
	<g>
	</g>
	<g>
	</g>
</g>
</svg>
